PathFileType	4	(X/Y/Z)	Walking05.trc	
DataRate	CameraRate	NumFrames	NumMarkers	Units	OrigDataRate	OrigDataStartFrame	OrigNumFrames	
100.00	100.00	11	19	mm	100.00	409	98	
Frame#	Time	RPSI			LPSI			RASI			LASI			RTHI			RKNE			RHFB			RTUB			RSHN			RANK			RLCA			RSTL			RPCA			RCPG			RHEE			RP5M			RP1M			RD5M			RTOE			
		X1	Y1	Z1	X2	Y2	Z2	X3	Y3	Z3	X4	Y4	Z4	X5	Y5	Z5	X6	Y6	Z6	X7	Y7	Z7	X8	Y8	Z8	X9	Y9	Z9	X10	Y10	Z10	X11	Y11	Z11	X12	Y12	Z12	X13	Y13	Z13	X14	Y14	Z14	X15	Y15	Z15	X16	Y16	Z16	X17	Y17	Z17	X18	Y18	Z18	X19	Y19	Z19	

25	0.240	-450.94940	926.86725	164.40001	-452.84930	926.33600	70.27441	-264.21271	884.03723	238.00150	-256.48514	873.56433	4.32609	-339.15765	571.32086	258.54153	-335.51129	430.11023	223.69894	-342.98340	388.64664	220.01068	-283.10870	378.97394	163.98051	-301.55820	306.19998	154.37877	-402.58914	59.97142	171.15498	-415.18958	37.28502	163.25908	-405.36789	39.28886	99.39869	-437.80310	61.92827	129.05696	-463.85013	48.16258	126.59808	-446.92081	20.90599	122.33226	-322.97647	7.40700	196.24185	-300.65475	58.44159	116.41023	-286.36151	11.95545	202.49612	-250.27803	32.66317	158.56490 
26	0.250	-437.44083	928.74243	163.75928	-439.50873	927.71075	69.45333	-251.18271	884.90588	237.31810	-243.06546	875.04315	4.23122	-332.13770	571.32874	257.04770	-331.95920	430.19324	222.58287	-339.27292	388.82242	218.98494	-280.43817	378.49634	162.16449	-299.75397	306.02423	152.18066	-402.68292	60.20982	171.02042	-415.02051	37.55499	163.25217	-404.89636	39.44365	99.11749	-437.47015	62.33854	128.48193	-463.51056	48.44802	126.02024	-446.58298	21.36105	122.09637	-322.97485	7.63976	196.08897	-300.42026	58.34161	116.11897	-286.27695	11.96994	202.36816	-250.23138	32.03457	157.92635 
27	0.260	-423.95633	930.18170	162.89818	-426.06784	928.65552	68.66026	-238.27040	885.37958	236.73824	-229.69374	875.97632	3.85167	-325.43356	571.24567	255.52087	-328.25076	430.34973	221.38408	-335.47543	388.97485	217.86397	-277.63541	378.04059	160.50130	-297.60666	306.02774	150.48108	-402.84348	60.42396	170.78569	-414.79538	37.82902	163.23538	-403.59933	39.32197	98.95631	-436.94568	62.60415	127.80945	-463.20551	49.90121	125.98746	-446.05280	21.92859	121.67966	-322.94846	7.91759	195.86188	-300.12408	58.18863	115.67174	-286.24808	11.95006	202.16026	-249.81317	32.12631	157.95714 
28	0.270	-410.49960	931.15295	161.98094	-412.62967	929.13867	67.86371	-225.34546	885.44080	236.28467	-216.27678	876.39160	3.14624	-318.88843	571.15015	254.09755	-324.22580	430.43329	220.07181	-331.90982	389.31470	216.69386	-274.58191	377.51324	159.05186	-295.08090	306.04718	149.23196	-401.84045	61.54287	169.96858	-414.38223	38.91255	162.27353	-402.86951	39.60810	98.53542	-436.70410	63.91843	127.05907	-462.87726	50.97536	125.32639	-445.79840	22.64015	121.08797	-323.29413	8.78544	196.48380	-299.97418	57.94897	115.09010	-286.58569	11.92273	202.03447	-249.45641	32.03400	157.86497 
29	0.280	-397.11685	931.53351	160.95534	-399.10193	929.21143	66.99883	-212.45197	885.05914	236.00241	-202.83295	876.38989	2.14265	-312.18167	571.15723	252.73669	-320.24948	430.65927	218.79240	-328.62067	389.72754	215.51025	-271.39001	376.95557	157.91011	-292.39877	305.90964	148.46680	-401.42789	62.44300	169.36096	-414.09113	39.81955	161.43192	-402.10880	39.90780	98.15682	-436.58374	65.07603	125.79823	-462.46857	51.98295	124.34097	-445.50339	23.33983	120.44483	-324.07175	10.35952	198.13680	-299.23068	57.74154	114.43060	-286.46286	11.97209	201.97511	-249.25923	31.87273	157.70824 
30	0.290	-383.67337	931.24286	159.80867	-385.44659	928.85370	66.03582	-199.43306	884.20654	235.82243	-189.18398	875.98779	1.16128	-304.97244	571.08868	251.43385	-316.28192	430.90671	217.48453	-325.48184	390.08771	214.36723	-268.11349	376.19101	156.80351	-289.56747	305.49191	148.07156	-401.12076	63.33467	168.64166	-413.85477	40.67345	160.69531	-401.21643	40.20931	97.93311	-435.49869	65.68734	125.67912	-462.05328	53.05824	123.27924	-445.32291	24.21108	119.70480	-324.22720	11.18872	198.23065	-298.33987	57.59636	113.80305	-286.26358	12.18367	201.89325	-249.05371	31.75880	157.55408 
31	0.300	-370.22940	930.31183	158.58939	-371.56531	928.06793	65.02437	-186.26439	882.83087	235.71616	-175.40448	875.20935	0.34637	-297.21710	570.81519	250.22006	-312.29712	431.08041	216.40060	-322.26074	390.34952	213.22240	-264.76605	375.44116	156.06442	-286.57431	305.01181	147.67212	-400.77905	64.18914	167.92902	-413.60617	41.65023	160.00301	-401.00903	40.93145	97.12389	-434.80142	66.66991	124.93855	-461.72427	54.25630	122.33554	-445.20569	25.11699	118.95589	-324.24545	11.87946	197.87363	-298.49310	57.52594	113.42041	-286.21579	12.29708	201.70464	-249.02042	31.71859	157.53818 
32	0.310	-356.77969	928.77521	157.30690	-357.53906	926.79669	63.91008	-172.81033	881.08185	235.57162	-161.39374	874.17078	-0.38352	-289.13324	570.54407	249.18584	-307.84100	431.18262	215.46251	-318.89444	390.56741	212.18652	-261.46097	374.80893	155.78267	-283.41754	304.53851	147.17390	-400.30640	65.01044	167.25880	-413.31113	42.64152	159.25101	-400.79099	41.80002	96.33843	-434.30423	67.83149	124.14961	-461.40280	55.56060	121.46691	-445.10336	26.13350	118.07407	-324.21201	12.47293	197.34985	-298.26071	57.49524	112.96735	-286.27649	12.41684	201.41479	-249.11108	31.61584	157.65364 
33	0.320	-343.24335	926.62543	155.81247	-343.40594	925.03674	62.60524	-159.10561	879.01605	235.39146	-147.04756	872.87238	-0.97787	-280.75894	570.22040	248.31715	-302.83713	431.13705	214.66774	-314.92953	390.76822	211.35808	-257.78751	373.68930	154.93619	-279.93906	304.10519	146.70898	-399.75092	65.91459	166.37836	-413.03574	43.52823	158.21480	-400.58774	43.09768	95.10489	-433.75839	69.16064	123.18037	-461.09723	56.95580	120.52139	-444.85312	27.50541	116.76509	-324.25592	13.06033	196.65747	-297.83167	57.50182	112.50023	-286.47763	12.61995	201.03784	-249.15347	31.55161	157.66171 
34	0.330	-329.58136	924.09302	154.15613	-329.24161	922.78430	61.17447	-145.88693	876.37262	235.44914	-132.34883	871.34082	-1.25604	-272.02652	569.69415	247.56898	-297.27158	431.03491	213.89517	-310.32645	390.85938	210.57053	-253.19234	372.82230	154.46303	-276.13370	303.72119	146.21138	-399.28186	66.98415	165.15904	-412.78299	44.69883	156.77570	-399.86707	44.35567	93.97301	-432.92426	70.70802	121.83014	-460.66901	58.59708	119.02825	-444.53513	29.05671	114.95708	-324.41168	13.76272	195.70454	-297.25406	57.58561	111.90021	-286.80463	12.91343	200.55727	-249.16103	31.50669	157.66603 
35	0.340	-316.16739	921.44525	152.43549	-314.91803	920.16632	59.49275	-132.30704	873.60443	235.61128	-117.45504	869.45215	-1.31557	-263.01651	568.97821	246.91551	-291.09802	430.99011	213.02704	-305.08942	390.87747	209.71497	-248.00058	372.05316	154.28439	-271.97842	303.16263	145.55811	-398.64050	68.35901	163.88419	-412.45050	46.28458	155.49356	-399.34879	45.80759	92.72016	-432.13834	72.61568	120.32567	-459.89709	60.68856	117.10391	-444.12411	30.85702	113.58134	-324.39905	13.67426	193.95087	-296.63812	57.71605	111.26164	-287.12106	13.19524	200.06702	-249.13556	31.52397	157.75749 
